<svg width="51" height="30" viewBox="0 0 51 30" fill="none" xmlns="http://www.w3.org/2000/svg">
<path d="M13.8839 29.77C11.3173 29.77 8.99561 29.1517 6.91895 27.915C4.86561 26.655 3.24395 24.9167 2.05395 22.7C0.863945 20.4833 0.268945 17.9983 0.268945 15.245C0.268945 12.4917 0.863945 10.0067 2.05395 7.79C3.24395 5.57333 4.86561 3.84667 6.91895 2.61C8.99561 1.35 11.3173 0.719999 13.8839 0.719999C16.4273 0.719999 18.7373 1.35 20.8139 2.61C22.8906 3.84667 24.5123 5.57333 25.6789 7.79C26.8689 10.0067 27.4639 12.4917 27.4639 15.245C27.4639 17.9983 26.8689 20.4833 25.6789 22.7C24.5123 24.9167 22.8906 26.655 20.8139 27.915C18.7373 29.1517 16.4273 29.77 13.8839 29.77ZM13.8839 27.6C16.0306 27.6 17.9673 27.075 19.6939 26.025C21.4439 24.9517 22.8089 23.47 23.7889 21.58C24.7923 19.69 25.2939 17.5783 25.2939 15.245C25.2939 12.9117 24.7923 10.8 23.7889 8.91C22.8089 7.02 21.4439 5.55 19.6939 4.5C17.9673 3.42666 16.0306 2.89 13.8839 2.89C11.7373 2.89 9.78895 3.42666 8.03895 4.5C6.28895 5.55 4.91228 7.02 3.90895 8.91C2.92895 10.8 2.43895 12.9117 2.43895 15.245C2.43895 17.5783 2.92895 19.69 3.90895 21.58C4.91228 23.47 6.28895 24.9517 8.03895 26.025C9.78895 27.075 11.7373 27.6 13.8839 27.6ZM49.1451 1C49.4484 1 49.6934 1.105 49.8801 1.315C50.0901 1.50167 50.1951 1.74666 50.1951 2.05C50.1951 2.35333 50.0901 2.61 49.8801 2.82C49.6934 3.00667 49.4484 3.1 49.1451 3.1H41.8301V27.88C41.8301 28.16 41.7251 28.405 41.5151 28.615C41.3051 28.825 41.0484 28.93 40.7451 28.93C40.4417 28.93 40.1734 28.825 39.9401 28.615C39.7301 28.405 39.6251 28.16 39.6251 27.88V3.1H32.2751C31.9717 3.1 31.7151 3.00667 31.5051 2.82C31.3184 2.61 31.2251 2.35333 31.2251 2.05C31.2251 1.74666 31.3184 1.50167 31.5051 1.315C31.7151 1.105 31.9717 1 32.2751 1H49.1451Z" fill="white"/>
</svg>
