<svg width="43" height="30" viewBox="0 0 43 30" fill="none" xmlns="http://www.w3.org/2000/svg">
<path d="M9.9832 29.665C8.1632 29.665 6.43654 29.2217 4.8032 28.335C3.16987 27.425 1.88654 26.2117 0.953203 24.695C0.766537 24.3683 0.673203 23.9833 0.673203 23.54C0.673203 22.8167 0.848203 22.245 1.1982 21.825C1.57154 21.405 2.06154 21.195 2.6682 21.195C3.18154 21.195 3.62487 21.3 3.9982 21.51C4.37154 21.72 4.6982 22.0583 4.9782 22.525C5.42154 23.2717 6.10987 23.89 7.0432 24.38C7.99987 24.8467 8.97987 25.08 9.9832 25.08C13.3432 25.08 15.0232 23.9133 15.0232 21.58C15.0232 20.5767 14.6032 19.6667 13.7632 18.85C12.9465 18.0333 11.6399 17.205 9.8432 16.365C7.71987 15.385 6.0632 14.4983 4.8732 13.705C3.70654 12.8883 2.86654 12.025 2.3532 11.115C1.83987 10.1817 1.5832 9.085 1.5832 7.825C1.5832 6.37833 1.9682 5.095 2.7382 3.975C3.5082 2.83166 4.56987 1.945 5.9232 1.315C7.27654 0.661665 8.7932 0.334998 10.4732 0.334998C12.3399 0.334998 14.0549 0.754998 15.6182 1.595C17.1815 2.41167 18.3715 3.53167 19.1882 4.955C19.4215 5.32833 19.5382 5.71333 19.5382 6.11C19.5382 6.67 19.3515 7.16 18.9782 7.58C18.6282 8 18.1849 8.21 17.6482 8.21C17.2515 8.21 16.8432 8.105 16.4232 7.895C16.0032 7.66167 15.6765 7.38167 15.4432 7.055C14.9065 6.30833 14.2299 5.76 13.4132 5.41C12.6199 5.06 11.6399 4.885 10.4732 4.885C9.09654 4.885 8.01154 5.14167 7.2182 5.655C6.4482 6.145 6.0632 6.86833 6.0632 7.825C6.0632 8.40833 6.2032 8.89833 6.4832 9.295C6.78654 9.66833 7.2882 10.0533 7.9882 10.45C8.71154 10.8467 9.88987 11.4183 11.5232 12.165C14.3699 13.495 16.4115 14.8833 17.6482 16.33C18.9082 17.7767 19.5382 19.5267 19.5382 21.58C19.5382 23.19 19.1415 24.6133 18.3482 25.85C17.5549 27.0633 16.4349 28.0083 14.9882 28.685C13.5415 29.3383 11.8732 29.665 9.9832 29.665ZM33.2768 0.474998C36.0768 0.474998 38.2701 1.14 39.8568 2.47C41.4668 3.8 42.2718 5.64333 42.2718 8C42.2718 9.63333 41.9101 11.0567 41.1868 12.27C40.4635 13.4833 39.4251 14.4283 38.0718 15.105C36.7418 15.7583 35.1668 16.085 33.3468 16.085H28.6568V27.075C28.6568 27.6583 28.4235 28.16 27.9568 28.58C27.5135 28.9767 26.9885 29.175 26.3818 29.175C25.7751 29.175 25.2501 28.9767 24.8068 28.58C24.3635 28.16 24.1418 27.6583 24.1418 27.075V2.785C24.1418 2.17833 24.3518 1.665 24.7718 1.245C25.2151 0.824998 25.7751 0.591665 26.4518 0.544999C27.2451 0.521666 28.3535 0.51 29.7768 0.51C31.2001 0.486665 32.3668 0.474998 33.2768 0.474998ZM33.3468 11.885C34.7935 11.885 35.8901 11.57 36.6368 10.94C37.4068 10.31 37.7918 9.44667 37.7918 8.35C37.7918 7.37 37.4068 6.565 36.6368 5.935C35.8901 5.305 34.7701 4.99 33.2768 4.99L28.6568 5.025V11.885H33.3468Z" fill="white"/>
</svg>
